<svg width="855" height="217" xmlns="http://www.w3.org/2000/svg" xmlns:xlink="http://www.w3.org/1999/xlink" overflow="hidden"><defs><clipPath id="clip0"><path d="M107 177 962 177 962 394 107 394Z" fill-rule="evenodd" clip-rule="evenodd"/></clipPath></defs><g clip-path="url(#clip0)" transform="translate(-107 -177)"><rect x="168" y="192" width="81" height="48" fill="#ED7D31"/><text fill="#FFFFFF" font-family="Calibri,Calibri_MSFontService,Arial" font-weight="400" font-size="19" transform="translate(199.953 222)">UI</text><rect x="141" y="293" width="135" height="67" fill="#548235"/><text fill="#FFFFFF" font-family="Calibri,Calibri_MSFontService,Arial" font-weight="400" font-size="19" transform="translate(151.736 321)">Speech<tspan x="54.6667" y="0">-</tspan><tspan x="60.3333" y="0">to</tspan>-<tspan x="81.9867" y="0">Text</tspan><tspan x="18.8067" y="23">Converter</tspan></text><path d="M209.167 240.5 209.167 287.221 207.833 287.221 207.833 240.5ZM212.5 285.888 208.5 293.888 204.5 285.888Z"/><text font-family="Calibri,Calibri_MSFontService,Arial" font-weight="400" font-size="16" transform="translate(134.778 272)">user input</text><rect x="379" y="261" width="392" height="132" fill="#430EBA"/><text fill="#FFFFFF" font-family="Calibri,Calibri_MSFontService,Arial" font-weight="400" font-size="19" transform="translate(409.678 321)">Tokenizer <tspan font-size="16" x="75.6533" y="0">→</tspan><tspan x="94.32" y="0">Featurizer</tspan><tspan font-size="16" x="174.62" y="0">→</tspan><tspan x="193.287" y="0">Intent Classifier </tspan><tspan font-size="16" x="315.573" y="0">→</tspan><tspan x="-14.0334" y="23">Syntactic/Semantic Parser </tspan><tspan font-size="16" x="186.78" y="23">→</tspan><tspan x="205.447" y="23">Response Selector</tspan></text><rect x="856" y="289" width="104" height="76" fill="#3259A0"/><text fill="#FFFFFF" font-family="Calibri,Calibri_MSFontService,Arial" font-weight="400" font-size="19" transform="translate(877.268 310)">Request <tspan x="-6.12" y="23">Processor</tspan><tspan x="-11.1866" y="45">(KB access)</tspan></text><path d="M276.5 326.833 372.813 326.833 372.813 328.167 276.5 328.167ZM371.48 323.5 379.48 327.5 371.48 331.5Z"/><path d="M8.2244e-07-0.666667 78.4353-0.66657 78.4353 0.666763-8.2244e-07 0.666667ZM77.1019-3.9999 85.1019 0.000104987 77.1019 4.00009Z" transform="matrix(1 0 0 -1 771.5 327.5)"/><path d="M0-0.666667 73.5236-0.666667 73.5236 652.599 72.1902 652.599 72.1902 0 72.8569 0.666667 0 0.666667ZM76.8569 651.265 72.8569 659.265 68.8569 651.265Z" transform="matrix(-4.37114e-08 -1 -1 4.37114e-08 908.765 289.357)"/><text font-family="Calibri,Calibri_MSFontService,Arial" font-weight="400" font-size="16" transform="translate(298.128 349)">sentence<tspan x="487.831" y="0">selected </tspan><tspan x="494.825" y="19">action</tspan><tspan x="250.761" y="-152">response</tspan><tspan fill="#FFFFFF" font-weight="700" font-size="19" x="90.3296" y="-66">RASA NLU</tspan></text></g></svg>